<?xml version="1.0" standalone="no"?>
<!DOCTYPE svg PUBLIC "-//W3C//DTD SVG 20010904//EN"
 "http://www.w3.org/TR/2001/REC-SVG-20010904/DTD/svg10.dtd">
<svg version="1.0" xmlns="http://www.w3.org/2000/svg"
 width="500.000000pt" height="500.000000pt" viewBox="0 0 500.000000 500.000000"
 preserveAspectRatio="xMidYMid meet">

<g transform="translate(0.000000,500.000000) scale(0.100000,-0.100000)"
fill="#000000" stroke="none">
<path d="M1385 4988 c-46 -25 -45 -10 -45 -640 l0 -598 -645 -2 -644 -3 -23
-23 -23 -23 -3 -1512 c-1 -831 0 -1522 3 -1534 3 -12 15 -32 27 -43 19 -17 35
-20 122 -20 l101 0 0 -270 c0 -267 0 -270 23 -292 l23 -23 2199 0 2199 0 23
23 c23 22 23 26 24 290 l0 267 95 3 c104 2 133 12 148 51 8 18 10 475 9 1543
l-3 1517 -23 23 -23 23 -644 3 -645 2 0 594 c0 327 -3 602 -6 611 -18 46 7 45
-1156 45 -772 -1 -1099 -4 -1113 -12z m2115 -1700 l0 -1543 -87 0 c-71 0 -97
-4 -134 -23 -74 -36 -125 -87 -161 -160 -29 -59 -33 -76 -33 -147 0 -86 24
-156 67 -202 12 -13 20 -24 17 -26 -2 -2 -28 -20 -56 -41 -29 -21 -64 -52 -78
-69 l-26 -32 -22 30 c-43 59 -99 114 -152 151 -30 20 -55 39 -55 42 0 2 16 22
35 45 79 92 118 228 97 340 -30 160 -145 289 -296 332 -88 26 -212 17 -289
-20 -127 -61 -216 -180 -239 -319 -19 -114 18 -241 97 -333 19 -23 35 -43 35
-45 0 -3 -25 -22 -55 -42 -53 -37 -109 -92 -152 -151 l-22 -30 -26 32 c-14 17
-49 48 -78 69 -28 21 -54 39 -56 40 -2 2 8 17 22 33 38 45 67 133 67 201 0 91
-31 164 -99 231 -76 75 -147 102 -248 97 l-73 -3 0 1542 0 1543 1000 0 1000 0
0 -1542z m-2170 -683 l0 -974 -25 -37 c-37 -55 -58 -137 -52 -204 5 -64 37
-143 70 -178 20 -21 20 -24 5 -33 -84 -47 -178 -159 -214 -256 -10 -27 -19
-49 -20 -51 -3 -5 -94 61 -94 68 0 3 11 22 25 40 57 77 71 207 33 307 -27 73
-101 153 -171 184 -74 33 -201 34 -272 1 -113 -52 -185 -158 -193 -283 -5 -87
6 -133 49 -197 16 -24 29 -47 29 -52 0 -4 -15 -18 -34 -29 -37 -23 -117 -105
-135 -139 -10 -20 -20 -22 -86 -22 l-75 0 0 1415 0 1415 580 0 580 0 0 -975z
m3500 -440 l0 -1415 -74 0 c-74 0 -75 0 -95 34 -22 34 -98 109 -141 138 -21
14 -23 19 -13 35 74 110 92 222 52 328 -28 75 -101 155 -172 186 -74 33 -201
34 -272 1 -63 -29 -129 -93 -162 -157 -50 -97 -40 -251 22 -334 14 -19 25 -38
25 -41 0 -7 -91 -73 -94 -68 -1 2 -10 24 -20 51 -36 97 -130 209 -214 256 -15
9 -15 12 5 33 33 35 65 114 70 178 6 67 -15 149 -52 204 l-25 37 0 974 0 975
580 0 580 0 0 -1415z m-3165 -608 c45 -25 85 -92 85 -143 0 -51 -40 -115 -90
-141 -54 -29 -94 -29 -150 0 -96 48 -120 176 -47 256 50 54 135 66 202 28z
m1842 -3 c46 -35 66 -70 70 -126 5 -71 -25 -124 -87 -155 -56 -29 -96 -29
-150 0 -50 26 -90 90 -90 141 0 51 40 118 85 144 50 28 131 26 172 -4z m-2676
-246 c123 -69 107 -243 -26 -293 -105 -41 -215 35 -215 149 0 129 130 207 241
144z m3499 1 c104 -58 108 -218 8 -279 -50 -30 -93 -35 -143 -15 -52 19 -91
61 -104 113 -37 136 115 251 239 181z m-2608 -261 c66 -31 128 -91 160 -156
22 -46 23 -57 28 -385 l5 -337 -333 0 -333 0 3 328 3 327 26 55 c64 136 170
202 314 197 50 -2 86 -10 127 -29z m1843 -3 c68 -35 118 -88 154 -164 l26 -56
3 -327 3 -328 -333 0 -333 0 5 337 c5 362 5 360 62 439 36 50 85 87 154 115
73 29 183 22 259 -16z m-2698 -237 c73 -27 153 -101 184 -171 22 -48 24 -67
27 -259 l3 -208 -330 0 -331 0 0 195 c0 234 11 277 94 363 94 97 227 127 353
80z m3500 1 c79 -30 162 -113 192 -192 19 -52 21 -78 21 -252 l0 -195 -331 0
-330 0 3 208 c3 191 5 211 26 258 70 155 257 232 419 173z"/>
<path d="M1962 4660 c-48 -20 -52 -54 -52 -408 0 -215 4 -340 11 -361 22 -62
16 -61 579 -61 563 0 557 -1 579 61 7 21 11 146 11 361 0 359 -4 389 -55 408
-34 13 -1041 12 -1073 0z m953 -410 l0 -245 -415 0 -415 0 -3 235 c-1 129 0
240 3 247 3 11 89 13 417 11 l413 -3 0 -245z"/>
<path d="M2080 3585 l0 -85 85 0 85 0 0 85 0 85 -85 0 -85 0 0 -85z"/>
<path d="M2417 3664 c-4 -4 -7 -43 -7 -86 l0 -78 90 0 91 0 -3 83 -3 82 -80 3
c-45 1 -84 0 -88 -4z"/>
<path d="M2750 3585 l0 -85 85 0 85 0 0 85 0 85 -85 0 -85 0 0 -85z"/>
<path d="M1750 3250 l0 -91 83 3 82 3 0 85 0 85 -82 3 -83 3 0 -91z"/>
<path d="M2087 3333 c-4 -3 -7 -44 -7 -90 l0 -83 85 0 85 0 0 90 0 90 -78 0
c-43 0 -82 -3 -85 -7z"/>
<path d="M2414 3327 c-3 -8 -4 -47 -2 -88 l3 -74 85 0 85 0 0 85 0 85 -83 3
c-63 2 -84 0 -88 -11z"/>
<path d="M2750 3250 l0 -90 85 0 86 0 -3 88 -3 87 -82 3 -83 3 0 -91z"/>
<path d="M3084 3327 c-3 -8 -4 -47 -2 -88 l3 -74 83 -3 82 -3 0 91 0 90 -80 0
c-58 0 -82 -4 -86 -13z"/>
<path d="M1750 2915 l0 -85 85 0 85 0 0 85 0 85 -85 0 -85 0 0 -85z"/>
<path d="M2080 2915 l0 -85 85 0 85 0 0 85 0 85 -85 0 -85 0 0 -85z"/>
<path d="M2410 2915 l0 -85 90 0 90 0 0 85 0 85 -90 0 -90 0 0 -85z"/>
<path d="M2750 2915 l0 -85 85 0 85 0 0 85 0 85 -85 0 -85 0 0 -85z"/>
<path d="M3080 2915 l0 -85 85 0 85 0 0 85 0 85 -85 0 -85 0 0 -85z"/>
<path d="M1750 2585 l0 -85 85 0 85 0 0 85 0 85 -85 0 -85 0 0 -85z"/>
<path d="M2080 2585 l0 -85 85 0 85 0 0 85 0 85 -85 0 -85 0 0 -85z"/>
<path d="M2417 2664 c-4 -4 -7 -43 -7 -86 l0 -78 90 0 91 0 -3 83 -3 82 -80 3
c-45 1 -84 0 -88 -4z"/>
<path d="M2750 2585 l0 -85 85 0 85 0 0 85 0 85 -85 0 -85 0 0 -85z"/>
<path d="M3080 2585 l0 -85 85 0 85 0 0 85 0 85 -85 0 -85 0 0 -85z"/>
<path d="M1750 2255 l0 -85 75 0 c41 0 78 0 83 0 4 0 7 37 7 83 l0 82 -82 3
-83 3 0 -86z"/>
<path d="M2087 2333 c-4 -3 -7 -41 -7 -84 l0 -77 81 -4 c44 -2 83 -1 85 1 2 2
4 42 4 88 l0 83 -78 0 c-43 0 -82 -3 -85 -7z"/>
<path d="M2417 2334 c-4 -4 -7 -43 -7 -86 l0 -78 90 0 91 0 -3 83 -3 82 -80 3
c-45 1 -84 0 -88 -4z"/>
<path d="M2750 2257 c0 -46 2 -86 4 -88 2 -2 41 -3 86 -1 l81 4 -3 81 -3 82
-82 3 -83 3 0 -84z"/>
<path d="M3087 2333 c-7 -7 -10 -157 -3 -164 2 -2 41 -3 85 -1 l81 4 0 84 0
84 -78 0 c-43 0 -82 -3 -85 -7z"/>
<path d="M920 2418 l0 -668 80 0 80 0 0 668 0 667 -80 0 -80 0 0 -667z"/>
<path d="M420 2415 l0 -665 80 0 80 0 0 665 0 665 -80 0 -80 0 0 -665z"/>
<path d="M3920 2418 l0 -668 80 0 80 0 0 668 0 667 -80 0 -80 0 0 -667z"/>
<path d="M4420 2415 l0 -665 80 0 80 0 0 665 0 665 -80 0 -80 0 0 -665z"/>
</g>
</svg>
