<svg width="24" height="24" viewBox="0 0 24 24" fill="none" xmlns="http://www.w3.org/2000/svg">
<path fill-rule="evenodd" clip-rule="evenodd" d="M7.66979 1.99902H16.3398C19.7298 1.99902 21.9998 4.37902 21.9998 7.91902V16.09C21.9998 19.62 19.7298 21.999 16.3398 21.999H7.66979C4.27979 21.999 1.99979 19.62 1.99979 16.09V7.91902C1.99979 4.37902 4.27979 1.99902 7.66979 1.99902ZM15.0098 14.999C15.3498 14.66 15.3498 14.11 15.0098 13.77L13.2298 11.99L15.0098 10.209C15.3498 9.87002 15.3498 9.31002 15.0098 8.97002C14.6698 8.62902 14.1198 8.62902 13.7698 8.97002L11.9998 10.749L10.2198 8.97002C9.86979 8.62902 9.31979 8.62902 8.97979 8.97002C8.63979 9.31002 8.63979 9.87002 8.97979 10.209L10.7598 11.99L8.97979 13.76C8.63979 14.11 8.63979 14.66 8.97979 14.999C9.14979 15.169 9.37979 15.26 9.59979 15.26C9.82979 15.26 10.0498 15.169 10.2198 14.999L11.9998 13.23L13.7798 14.999C13.9498 15.18 14.1698 15.26 14.3898 15.26C14.6198 15.26 14.8398 15.169 15.0098 14.999Z" fill="#404040"/>
</svg>
