<?xml version="1.0" standalone="no"?><!DOCTYPE svg PUBLIC "-//W3C//DTD SVG 20010904//EN"
    "http://www.w3.org/2000/svg">
<svg version="1.0" xmlns="http://www.w3.org/2000/svg" width="450.0pt" height="405.0pt"
    viewBox="0 0 450.000000 405.000000" preserveAspectRatio="xMidYMid meet">

    <g transform="translate(0.000000,405.000000) scale(0.100000,-0.100000)" fill="#000000"
        stroke="none">
        <path d="M3008 3753 c34 -2 88 -2 120 0 31 2 3 3 -63 3 -66 0 -92 -1 -57 -3z" />
        <path d="M1175 3729 c-54 -29 -83 -57 -107 -104 -17 -32 -18 -37 -4 -26 9 7
16 19 16 25 0 28 91 99 149 117 21 6 22 7 6 8 -11 1 -38 -8 -60 -20z" />
        <path d="M3238 3743 c7 -3 16 -2 19 1 4 3 -2 6 -13 5 -11 0 -14 -3 -6 -6z" />
        <path d="M3271 3737 c2 -2 21 -15 42 -30 20 -16 37 -24 37 -18 0 10 -61 51
-75 51 -5 0 -6 -1 -4 -3z" />
        <path d="M1292 3698 c-53 -9 -89 -28 -73 -38 9 -5 6 -9 -8 -13 -13 -3 -19 -1
-14 5 3 7 1 8 -5 4 -7 -4 -10 -17 -8 -29 1 -12 1 -16 -1 -9 -7 19 -18 14 -34
-15 -8 -16 -18 -31 -24 -35 -12 -9 -27 -773 -23 -1178 3 -247 5 -289 20 -316
29 -52 68 -94 112 -117 l41 -22 960 0 960 0 50 25 c64 32 110 93 125 166 11
52 10 347 -4 1313 -1 87 -5 126 -14 129 -7 2 -12 9 -12 15 0 16 -44 67 -58 67
-5 0 -12 7 -15 14 -5 14 -26 21 -109 42 -18 4 -28 2 -28 -5 0 -6 13 -11 28
-11 16 0 46 -9 68 -20 23 -12 29 -18 14 -14 -14 3 -29 10 -34 15 -6 5 -224 10
-485 11 l-476 3 440 5 440 5 -410 3 c-861 7 -1384 7 -1423 0z m428 -15 c-276
-2 -448 -7 -454 -13 -6 -6 -15 -10 -20 -10 -6 0 -2 7 8 15 17 13 86 15 465 13
l446 -3 -445 -2z m508 0 c-10 -2 -28 -2 -40 0 -13 2 -5 4 17 4 22 1 32 -1 23
-4z m-871 -19 c-3 -3 -12 -4 -19 -1 -8 3 -5 6 6 6 11 1 17 -2 13 -5z m903 -24
c0 -40 -30 -56 -60 -32 -19 16 -21 22 -11 40 8 15 21 22 41 22 27 0 30 -3 30
-30z m50 24 c0 -3 -6 -12 -14 -19 -17 -18 -29 -8 -13 11 12 14 27 18 27 8z
m843 -1 c-7 -2 -19 -2 -25 0 -7 3 -2 5 12 5 14 0 19 -2 13 -5z m-1983 -78 c0
-8 -4 -15 -10 -15 -5 0 -7 7 -4 15 4 8 8 15 10 15 2 0 4 -7 4 -15z m1020 5 c0
-5 -4 -10 -9 -10 -6 0 -13 5 -16 10 -3 6 1 10 9 10 9 0 16 -4 16 -10z m1097
-12 c-3 -8 -6 -5 -6 6 -1 11 2 17 5 13 3 -3 4 -12 1 -19z m-1061 -35 c-11 -11
-17 4 -9 23 7 18 8 18 11 1 2 -10 1 -21 -2 -24z m49 26 c11 -16 1 -19 -13 -3
-7 8 -8 14 -3 14 5 0 13 -5 16 -11z m41 -5 c-3 -9 -6 -25 -6 -37 -1 -20 -1
-21 -11 -4 -7 13 -7 22 0 31 6 7 8 16 4 19 -3 4 -1 7 6 7 8 0 11 -6 7 -16z
m-119 -51 c-2 -16 -9 -39 -16 -51 -7 -13 -10 -26 -7 -30 4 -3 16 18 28 46 12
29 26 51 32 49 11 -4 14 -8 57 -102 18 -38 36 -71 41 -73 4 -2 8 -8 8 -14 0
-5 28 -59 62 -119 43 -74 65 -104 71 -96 6 8 7 6 3 -6 -4 -13 17 -49 70 -119
82 -109 84 -124 11 -112 -20 3 -75 3 -122 -1 l-85 -7 6 -42 c3 -22 32 -181 65
-353 32 -172 59 -321 59 -332 0 -18 -8 -19 -167 -21 -92 0 -205 2 -251 6 l-84
7 7 46 c3 25 24 136 45 246 57 291 81 437 75 444 -4 3 -61 7 -127 8 -66 1
-122 3 -123 5 -1 2 -6 14 -9 28 -5 17 -4 21 2 11 12 -16 27 3 16 21 -5 7 -3 8
5 4 15 -9 43 23 36 41 -2 7 1 12 8 10 8 -1 12 16 11 58 0 33 1 50 3 38 6 -31
16 -29 30 7 6 17 16 30 22 30 16 0 14 -17 -3 -23 -7 -3 -17 -18 -21 -34 -3
-15 -12 -31 -18 -35 -6 -4 -9 -10 -5 -13 13 -13 142 190 132 207 -4 6 -3 8 4
4 18 -11 97 152 97 201 1 24 6 48 13 55 7 7 12 18 12 25 0 7 2 13 5 13 3 0 3
-12 2 -27z m87 1 c3 -9 3 -21 -1 -27 -4 -6 0 -8 11 -4 22 9 30 -12 17 -44 -6
-16 -10 -18 -10 -7 -1 9 -5 18 -10 20 -6 2 -12 15 -15 30 -2 15 -7 32 -11 38
-3 5 -2 10 3 10 6 0 13 -7 16 -16z m-151 -141 c-11 -15 -25 -43 -33 -61 -7
-18 -15 -30 -17 -28 -6 6 35 95 52 112 19 21 17 6 -2 -23z m225 30 c-10 -2
-26 -2 -35 0 -10 3 -2 5 17 5 19 0 27 -2 18 -5z m36 -17 c-6 -15 -24 -23 -24
-11 0 8 24 34 28 30 1 -1 0 -10 -4 -19z m-302 -28 c-8 -8 -9 -4 -5 13 4 13 8
18 11 10 2 -7 -1 -18 -6 -23z m263 12 c3 -5 -1 -10 -9 -10 -9 0 -16 5 -16 10
0 6 4 10 9 10 6 0 13 -4 16 -10z m36 -43 c-12 -12 -15 -41 -3 -34 4 3 8 -6 8
-20 1 -13 1 -23 0 -21 -31 43 -44 75 -35 88 9 12 10 12 5 -2 -3 -10 -1 -18 5
-18 6 0 13 10 17 22 3 13 7 17 10 9 2 -7 -1 -18 -7 -24z m-345 -92 c3 -8 -4
-26 -15 -41 -12 -15 -21 -34 -21 -43 0 -14 -2 -14 -10 -1 -6 10 -4 20 6 31 8
9 12 24 8 35 -5 15 -4 16 5 4 5 -8 13 -11 17 -7 4 3 1 13 -6 22 -9 11 -9 15
-1 15 6 0 14 -7 17 -15z m394 5 c0 -5 -2 -10 -4 -10 -3 0 -8 5 -11 10 -3 6 -1
10 4 10 6 0 11 -4 11 -10z m37 -22 c-3 -7 -5 -2 -5 12 0 14 2 19 5 13 2 -7 2
-19 0 -25z m-9 -51 c6 2 9 -4 5 -12 -5 -13 -7 -13 -19 2 -7 10 -13 29 -12 43
0 23 1 22 7 -5 4 -16 12 -29 19 -28z m-1280 -14 c19 -42 14 -52 -8 -15 -22 36
-24 42 -12 42 4 0 13 -12 20 -27z m762 -13 c0 -5 -2 -10 -4 -10 -3 0 -8 5 -11
10 -3 6 -1 10 4 10 6 0 11 -4 11 -10z m585 -66 c-17 -17 -22 -17 -28 -1 -3 7
5 13 19 13 20 2 21 0 9 -12z m18 -23 c-3 -10 0 -28 6 -40 16 -29 7 -26 -14 5
-13 20 -14 28 -4 40 15 19 18 18 12 -5z m-685 -58 c-6 -7 -12 -13 -13 -13 -2
0 -5 6 -8 13 -3 7 3 13 14 13 13 0 15 -3 7 -13z m770 -28 c-3 -3 -9 2 -12 12
-6 14 -5 15 5 6 7 -7 10 -15 7 -18z m-28 3 c0 -6 7 -20 17 -30 9 -10 12 -18 7
-17 -5 0 -19 13 -32 30 -19 23 -20 29 -8 29 9 0 16 -5 16 -12z m-663 -94 c-3
-3 -12 -4 -19 -1 -8 3 -5 6 6 6 11 1 17 -2 13 -5z m307 -861 c10 -26 -23 -48
-42 -29 -8 8 -12 22 -9 30 8 21 43 20 51 -1z" />
        <path d="M2301 3464 c0 -11 3 -14 6 -6 3 7 2 16 -1 19 -3 4 -6 -2 -5 -13z" />
        <path d="M3360 3675 c0 -5 9 -23 20 -40 11 -16 20 -23 20 -15 0 17 -39 71 -40
55z" />
        <path d="M3407 3580 c3 -11 7 -20 9 -20 2 0 4 9 4 20 0 11 -4 20 -9 20 -5 0
-7 -9 -4 -20z" />
        <path d="M1046 3555 c-3 -9 -6 -26 -5 -38 1 -14 4 -9 9 13 9 37 7 52 -4 25z" />
        <path d="M1040 3045 c-8 -865 -7 -955 13 -1005 31 -77 97 -133 177 -151 19 -5
223 -9 453 -9 230 0 424 -3 431 -6 11 -4 15 -37 15 -151 1 -80 4 -150 8 -156
3 -6 1 -7 -5 -3 -8 5 -12 -1 -12 -16 l0 -23 -632 2 c-406 2 -628 -1 -618 -7
10 -6 -1 -8 -35 -4 -52 5 -102 -12 -97 -34 2 -11 -10 -16 -34 -13 -6 1 -17 -6
-24 -14 -9 -10 -9 -15 -1 -15 6 0 11 -5 11 -11 0 -6 -7 -8 -16 -5 -12 4 -15 2
-11 -9 4 -8 2 -17 -3 -20 -6 -4 -10 0 -10 7 -1 7 -8 -3 -17 -22 -13 -29 -16
-78 -17 -280 -1 -245 -1 -246 25 -295 28 -56 91 -109 147 -125 23 -6 268 -10
672 -11 349 0 642 -3 650 -7 8 -4 15 -17 16 -29 0 -13 1 -160 2 -328 l2 -305
25 0 c24 0 25 2 26 68 0 37 1 184 2 327 l2 260 26 9 c14 5 50 6 80 2 l54 -7
-3 -329 -3 -330 31 0 31 0 -3 329 -3 330 29 5 c16 3 299 6 630 6 336 0 627 4
660 10 69 11 134 59 169 123 20 39 22 57 25 262 4 241 -1 297 -26 324 -9 10
-18 24 -20 32 -6 25 -46 61 -92 83 -44 21 -59 21 -703 26 -363 3 -661 2 -664
-3 -2 -4 -10 -7 -16 -7 -9 0 -8 3 1 8 9 6 12 49 10 175 -2 92 -3 168 -3 169 0
1 191 4 425 7 l425 6 50 25 c55 28 119 103 129 153 3 16 5 332 4 701 l-3 671
-5 -685 -5 -685 -30 -47 c-17 -26 -46 -59 -65 -73 -77 -57 -52 -56 -1106 -53
-908 3 -972 4 -1009 21 -54 24 -103 73 -129 127 -21 44 -21 58 -26 750 l-5
705 -5 -450z m1295 -1177 c2 -2 5 -80 7 -174 3 -147 1 -171 -12 -170 -9 1 -17
14 -20 31 -4 24 -11 31 -34 33 -31 4 -46 -10 -46 -43 0 -14 -7 -21 -20 -21
-14 0 -20 7 -20 24 0 15 -4 21 -12 16 -7 -5 -8 -3 -3 6 5 8 8 78 7 156 -1 127
1 143 16 148 18 5 131 0 137 -6z m-164 -347 c-9 -6 -2 -10 23 -13 23 -2 37 1
40 9 3 8 19 12 38 11 l33 -1 -35 -5 c-27 -3 -31 -6 -16 -11 11 -4 40 -4 65 0
25 3 56 3 69 -2 17 -6 21 -6 16 3 -5 8 2 9 24 5 17 -4 321 -7 674 -8 354 -1
632 -5 618 -8 -25 -7 -25 -7 5 -13 17 -4 52 -25 78 -48 71 -63 79 -101 75
-363 -3 -194 -5 -215 -25 -252 -27 -51 -57 -79 -113 -104 -45 -20 -57 -21
-1478 -21 -1558 0 -1459 -4 -1536 55 -19 15 -45 48 -58 73 -21 43 -23 62 -26
244 -5 289 12 343 129 402 35 17 45 26 32 29 -10 2 288 5 662 6 437 1 681 5
683 11 2 6 11 10 20 10 14 0 14 -2 3 -9z m-1396 -31 c-3 -5 -11 -10 -16 -10
-6 0 -7 5 -4 10 3 6 11 10 16 10 6 0 7 -4 4 -10z m3047 -28 c11 -9 24 -26 30
-37 l11 -20 -23 20 c-13 11 -38 33 -54 49 -25 23 -26 26 -8 17 13 -7 33 -20
44 -29z m-3112 -12 c0 -5 -4 -10 -10 -10 -5 0 -10 5 -10 10 0 6 5 10 10 10 6
0 10 -4 10 -10z" />
        <path d="M2240 1775 c-17 -21 -4 -65 19 -65 34 0 51 12 51 34 0 42 -45 62 -70
31z" />
        <path d="M905 1464 c-95 -23 -107 -29 -144 -69 -22 -24 -44 -60 -50 -81 -6
-22 -11 -124 -11 -229 0 -163 3 -196 19 -231 22 -49 78 -97 130 -113 50 -14
2759 -16 2810 -1 47 13 93 47 122 88 24 35 24 39 24 261 0 200 -2 230 -19 264
-10 20 -22 37 -27 37 -4 0 -20 11 -35 25 -15 14 -43 29 -63 34 -37 10 -2718
25 -2756 15z m2588 -21 c-67 -2 -179 -2 -250 0 -70 1 -15 3 122 3 138 0 195
-2 128 -3z m198 -16 c19 -15 32 -47 18 -47 -5 0 -13 10 -18 22 -8 21 -11 21
-247 22 l-239 0 215 6 c118 3 224 6 235 7 11 2 27 -3 36 -10z m-391 -32 c0
-10 -9 -15 -27 -14 -24 2 -25 2 -5 6 12 2 22 9 22 14 0 5 2 9 5 9 3 0 5 -7 5
-15z m17 -17 c-3 -7 -5 -2 -5 12 0 14 2 19 5 13 2 -7 2 -19 0 -25z m20 10 c-3
-8 -6 -5 -6 6 -1 11 2 17 5 13 3 -3 4 -12 1 -19z m63 -2 c0 5 5 1 11 -9 11
-19 31 -14 23 6 -3 8 8 12 31 13 33 0 36 -2 46 -39 8 -29 7 -43 -1 -51 -8 -8
-9 -6 -4 8 5 13 4 17 -4 12 -8 -5 -10 -2 -6 8 3 9 4 16 1 16 -7 0 -87 -158
-97 -192 -9 -28 15 -106 69 -231 12 -27 21 -51 21 -53 0 -2 -20 -4 -44 -4
l-44 0 -33 85 c-44 117 -59 113 -56 -14 l2 -71 -42 0 -42 0 -3 241 c-2 152 1
244 7 248 6 5 27 6 48 3 l38 -4 -1 -57 c-3 -110 -3 -111 25 -66 14 22 22 48
19 57 -3 10 0 26 6 35 9 15 10 14 5 -7 -4 -19 -1 -16 13 10 21 39 20 49 -3 30
-13 -11 -15 -8 -15 15 0 23 2 26 15 15 8 -7 15 -9 15 -4z m-235 -16 c15 -6 25
-13 22 -16 -3 -3 -18 1 -35 10 -16 8 -33 12 -37 8 -5 -4 -5 -1 -1 6 4 7 11 10
15 7 5 -2 21 -9 36 -15z m44 -23 c-12 -43 -19 -45 -17 -5 1 20 6 35 13 35 9 0
10 -9 4 -30z m-314 -112 c9 -60 25 -165 36 -231 10 -67 19 -124 19 -128 0 -3
-20 -6 -45 -6 -44 0 -45 1 -45 33 0 17 -4 37 -8 42 -6 9 -41 12 -81 6 -6 0
-11 -18 -13 -38 -3 -36 -5 -38 -40 -41 -26 -2 -38 1 -38 10 0 7 16 114 35 237
19 123 35 227 35 232 0 12 114 16 121 4 4 -5 14 -59 24 -120z m263 112 c25
-19 42 -66 42 -112 l0 -45 -40 0 c-37 0 -40 2 -40 28 0 37 -21 65 -46 60 -18
-3 -19 -14 -22 -147 -4 -162 0 -191 26 -191 29 0 42 21 42 71 0 46 1 47 35 51
40 5 45 -4 44 -65 -2 -65 -12 -90 -48 -114 -68 -46 -160 -18 -180 54 -12 41
-15 291 -5 342 8 39 47 79 82 83 37 5 94 -3 110 -15z m192 -3 c-6 -14 -10 -43
-10 -65 0 -21 -4 -39 -9 -39 -5 0 -8 8 -6 18 2 9 7 38 10 65 3 26 10 47 15 47
6 0 5 -11 0 -26z m420 4 c0 -13 -32 -6 -37 9 -3 7 3 9 16 6 12 -3 21 -10 21
-15z m-2462 -25 l-3 -38 -62 -3 -63 -3 0 -64 c0 -36 3 -66 8 -66 6 -1 40 -5
80 -8 9 -1 12 -13 10 -38 -3 -38 -3 -38 -48 -38 l-45 0 -3 -97 -3 -98 -39 0
c-25 0 -40 5 -40 13 0 32 -1 463 0 470 0 4 48 7 106 7 l105 0 -3 -37z m220
-170 c18 -115 35 -225 39 -246 l6 -38 -44 3 c-43 3 -44 4 -49 43 -5 39 -6 40
-46 43 -44 3 -54 -8 -54 -65 0 -20 -5 -23 -40 -23 l-40 0 6 43 c12 90 66 423
69 435 3 8 25 12 62 12 l58 0 33 -207z m253 178 c21 -22 29 -39 29 -65 0 -20
0 -39 0 -43 0 -4 -17 -8 -37 -8 -34 0 -38 3 -41 27 -7 57 -62 64 -62 8 0 -42
12 -63 67 -113 59 -54 79 -98 75 -165 -6 -85 -74 -130 -157 -102 -46 15 -69
51 -69 109 l-1 46 35 0 c31 -1 35 -4 38 -30 5 -37 19 -55 43 -55 21 0 33 32
25 65 -4 14 -33 52 -66 86 -66 68 -86 115 -75 180 4 21 18 49 32 63 21 22 35
26 80 26 47 0 59 -4 84 -29z m284 -11 c0 -33 -2 -35 -37 -38 l-38 -3 -1 -177
c-1 -97 -1 -189 0 -204 1 -27 -1 -28 -44 -28 l-45 0 0 204 0 205 -37 3 c-36 3
-38 5 -41 41 l-3 38 123 -3 123 -3 0 -35z m345 0 l0 -40 -40 0 -40 0 0 -205 0
-205 -45 0 -45 0 0 204 0 205 -37 3 c-31 2 -39 7 -41 26 -7 49 -1 52 128 52
l120 0 0 -40z m226 7 c21 -24 24 -38 24 -101 0 -57 -4 -79 -19 -97 -18 -22
-18 -23 0 -43 15 -16 19 -36 19 -102 0 -45 3 -89 6 -98 5 -13 -2 -16 -40 -16
l-46 0 0 76 c0 87 -11 114 -45 114 -25 0 -25 -1 -25 -95 l0 -95 -40 0 -39 0
-3 241 c-2 132 -1 243 2 246 3 2 45 3 93 1 83 -3 90 -5 113 -31z m874 -48 c0
8 2 12 5 9 3 -3 2 -13 -1 -22 -5 -14 -9 -15 -15 -4 -7 11 -11 10 -20 -2 -9
-13 -10 -12 -5 3 3 10 6 26 6 35 1 12 5 10 15 -8 8 -14 14 -19 15 -11z m277
-1 c-3 -7 -5 -2 -5 12 0 14 2 19 5 13 2 -7 2 -19 0 -25z m-870 -20 c-3 -8 -6
-5 -6 6 -1 11 2 17 5 13 3 -3 4 -12 1 -19z m738 -48 c-3 -5 -11 -10 -16 -10
-6 0 -7 5 -4 10 3 6 11 10 16 10 6 0 7 -4 4 -10z m-216 -37 c-1 -37 -1 -37 -8
-8 -7 28 -5 45 5 45 2 0 3 -17 3 -37z m-362 -65 c-2 -13 -4 -3 -4 22 0 25 2
35 4 23 2 -13 2 -33 0 -45z m350 16 c8 -23 8 -31 -2 -31 -7 0 -10 8 -7 20 3
13 1 18 -5 14 -7 -5 -9 0 -6 13 7 24 7 24 20 -16z m-490 -56 c-3 -8 -6 -5 -6
6 -1 11 2 17 5 13 3 -3 4 -12 1 -19z" />
        <path d="M3450 1371 c0 -5 11 -8 25 -8 14 0 25 3 25 8 0 5 -11 9 -25 9 -14 0
-25 -4 -25 -9z" />
        <path d="M2805 1187 c-4 -9 -8 -44 -9 -76 0 -32 -4 -57 -8 -54 -5 2 -8 -3 -8
-11 0 -11 9 -16 30 -16 34 0 33 -3 16 100 -9 51 -16 69 -21 57z" />
        <path d="M1431 1219 c-2 -11 -22 -125 -27 -156 -5 -31 -3 -33 26 -33 25 0 30
4 29 23 -1 24 -26 176 -28 166z" />
        <path d="M2510 1210 c0 -62 2 -70 19 -70 30 0 51 28 51 66 0 48 -16 74 -45 74
-24 0 -25 -2 -25 -70z" />
        <path d="M2234 596 c-9 -23 -1 -48 19 -60 25 -16 52 4 52 40 0 25 -4 29 -33
32 -22 2 -34 -2 -38 -12z" />
        <path d="M2240 406 c-6 -8 -10 -25 -8 -38 2 -19 9 -23 38 -23 29 0 36 4 38 23
4 28 -14 52 -38 52 -10 0 -23 -7 -30 -14z" />
        <path d="M2234 206 c-15 -40 21 -80 54 -60 37 24 21 74 -25 74 -13 0 -26 -6
-29 -14z" />
    </g>
</svg>
