<?xml version="1.0" standalone="no"?>
<!DOCTYPE svg PUBLIC "-//W3C//DTD SVG 20010904//EN"
 "http://www.w3.org/TR/2001/REC-SVG-20010904/DTD/svg10.dtd">
<svg version="1.0" xmlns="http://www.w3.org/2000/svg"
 width="512.000000pt" height="512.000000pt" viewBox="0 0 512.000000 512.000000"
 preserveAspectRatio="xMidYMid meet">

<g transform="translate(0.000000,512.000000) scale(0.100000,-0.100000)"
fill="#000000" stroke="none">
<path d="M25 5095 l-25 -24 0 -434 c0 -424 0 -435 21 -461 15 -19 30 -26 54
-26 24 0 39 7 54 26 20 26 21 37 21 410 l0 384 2410 0 2410 0 0 -635 0 -635
-2410 0 -2410 0 0 94 c0 52 -3 102 -6 111 -10 24 -60 46 -89 39 -59 -15 -55
125 -55 -1972 l0 -1923 25 -24 24 -25 2511 0 2511 0 24 25 25 24 0 2511 0
2511 -25 24 -24 25 -2511 0 -2511 0 -24 -25z m735 -3245 l0 -1700 -305 0 -305
0 0 1700 0 1700 305 0 305 0 0 -1700z m1730 1040 l0 -660 -790 0 -790 0 0 660
0 660 790 0 790 0 0 -660z m1720 0 l0 -659 -486 -3 -486 -3 -19 -24 c-25 -30
-24 -76 1 -101 19 -19 33 -20 505 -20 l485 0 -2 -227 -3 -228 -785 0 -785 0 0
225 0 225 162 3 c161 2 162 3 182 29 34 42 26 85 -20 108 -21 11 -66 15 -179
15 l-150 0 0 660 0 660 790 0 790 0 0 -660z m760 -1040 l0 -1700 -305 0 -305
0 0 1700 0 1700 305 0 305 0 0 -1700z m-2485 0 l0 -225 -785 0 -785 0 -3 228
-2 227 787 -2 788 -3 0 -225z m5 -1040 l0 -660 -790 0 -790 0 0 660 0 660 790
0 790 0 0 -660z m1720 0 l0 -660 -790 0 -790 0 0 660 0 660 790 0 790 0 0
-660z"/>
<path d="M333 4620 c-40 -16 -43 -39 -43 -293 0 -242 0 -244 23 -265 31 -29
72 -28 102 3 23 22 25 32 25 110 l0 85 55 0 c46 0 60 4 80 25 32 31 33 74 2
103 -18 17 -36 22 -80 22 l-57 0 0 35 0 35 64 0 c78 0 109 20 109 70 0 24 -7
40 -27 57 -25 21 -36 23 -129 22 -56 0 -112 -4 -124 -9z"/>
<path d="M851 4613 c-20 -18 -201 -473 -201 -508 0 -26 46 -65 78 -65 32 0 62
28 82 78 l12 32 80 0 79 0 19 -44 c20 -48 43 -66 84 -66 27 0 66 41 66 71 0
10 -38 120 -86 246 -90 241 -109 273 -163 273 -16 0 -38 -8 -50 -17z m69 -300
c0 -7 -9 -13 -20 -13 -23 0 -24 4 -9 32 9 17 13 18 20 7 5 -8 9 -20 9 -26z"/>
<path d="M1331 4617 c-46 -15 -98 -68 -112 -116 -28 -95 24 -168 159 -221 86
-34 103 -49 82 -75 -25 -30 -115 -12 -149 29 -19 23 -77 20 -101 -4 -71 -71
56 -190 202 -190 118 0 208 81 208 187 0 85 -50 139 -175 188 -89 35 -88 34
-74 51 16 20 53 17 99 -6 55 -28 94 -26 119 6 27 35 26 56 -4 93 -49 57 -170
85 -254 58z"/>
<path d="M1752 4623 c-7 -3 -19 -18 -28 -35 -13 -25 -13 -35 -3 -59 14 -35 36
-49 78 -49 l31 0 0 -172 c0 -183 9 -241 40 -258 30 -16 68 -12 90 10 19 19 20
33 20 220 l0 200 39 0 c54 0 85 27 85 75 0 27 -6 43 -23 56 -20 17 -41 19
-170 18 -80 0 -152 -3 -159 -6z"/>
<path d="M2335 4605 c-14 -13 -25 -36 -25 -50 0 -38 42 -75 85 -75 l35 0 0
-195 c0 -195 0 -196 25 -220 31 -32 74 -33 103 -2 21 22 22 32 22 220 l0 197
34 0 c75 0 115 80 63 128 -22 21 -33 22 -171 22 -143 0 -148 -1 -171 -25z"/>
<path d="M2825 4605 l-25 -24 0 -246 0 -246 25 -24 c55 -56 125 -16 125 70 l0
49 68 -72 c76 -81 105 -90 147 -47 38 37 32 66 -29 138 l-54 63 35 28 c67 54
89 144 54 221 -39 85 -100 115 -231 115 -83 0 -93 -2 -115 -25z m203 -137 c30
-30 1 -68 -52 -68 -24 0 -26 4 -26 40 0 39 1 40 33 40 18 0 38 -5 45 -12z"/>
<path d="M3481 4612 c-22 -17 -201 -464 -201 -501 0 -30 39 -71 66 -71 41 0
65 19 86 66 l19 45 81 -3 c81 -3 81 -3 91 -33 24 -74 86 -97 134 -49 19 19 24
32 20 53 -13 64 -173 467 -194 489 -27 27 -72 29 -102 4z m59 -271 c0 -5 3
-16 6 -25 4 -12 0 -16 -16 -16 -16 0 -20 4 -16 16 3 9 6 20 6 25 0 5 5 9 10 9
6 0 10 -4 10 -9z"/>
<path d="M4032 4615 c-124 -39 -202 -148 -202 -283 0 -116 57 -208 164 -265
33 -17 58 -22 126 -22 92 0 122 11 178 63 39 36 44 90 12 122 -28 28 -65 25
-115 -11 -38 -27 -50 -31 -88 -27 -80 9 -127 63 -127 146 0 40 6 57 26 82 53
62 113 75 189 40 51 -23 88 -19 110 13 67 95 -118 191 -273 142z"/>
<path d="M4452 4607 c-21 -23 -22 -30 -22 -271 l0 -247 25 -24 c52 -53 115
-20 123 64 l5 52 72 -71 c81 -78 109 -87 150 -45 46 45 36 70 -76 180 l-100
100 92 86 c80 75 92 90 92 119 0 37 -39 80 -73 80 -11 0 -51 -27 -90 -60 l-70
-61 0 34 c0 76 -79 116 -128 64z"/>
</g>
</svg>
