<?xml version="1.0" standalone="no"?><!DOCTYPE svg PUBLIC "-//W3C//DTD SVG 20010904//EN"
    "http://www.w3.org/2000/svg">
<svg version="1.0" xmlns="http://www.w3.org/2000/svg" width="512.000000pt" height="512.000000pt"
    viewBox="0 0 512.000000 512.000000" preserveAspectRatio="xMidYMid meet">

    <g transform="translate(0.000000,512.000000) scale(0.100000,-0.100000)" fill="#000000"
        stroke="none">
        <path d="M25 5095 l-25 -24 0 -435 0 -435 22 -25 c33 -36 76 -38 108 -6 19 19
20 33 20 410 l0 390 2410 0 2410 0 0 -635 0 -635 -2410 0 -2410 0 0 104 c0
102 -1 105 -27 126 -33 26 -79 21 -106 -11 -16 -20 -17 -128 -17 -1946 l0
-1924 25 -24 24 -25 2511 0 2511 0 24 25 25 24 0 2511 0 2511 -25 24 -24 25
-2511 0 -2511 0 -24 -25z m2455 -2205 l0 -660 -785 0 -785 0 0 660 0 660 785
0 785 0 0 -660z m1730 0 l0 -659 -486 -3 -486 -3 -19 -24 c-25 -30 -24 -76 1
-101 19 -19 33 -20 408 -20 213 0 431 -3 485 -7 l97 -6 0 -219 0 -218 -785 0
-785 0 0 225 0 225 160 0 c151 0 160 1 180 22 11 12 20 32 20 44 0 71 -33 84
-215 84 l-145 0 0 660 0 660 785 0 785 0 0 -660z m-1822 -816 l92 -7 0 -218 0
-219 -785 0 -785 0 0 218 c0 120 3 222 7 225 8 9 1351 9 1471 1z m92 -1264 l0
-660 -785 0 -785 0 0 660 0 660 785 0 785 0 0 -660z m1730 0 l0 -660 -785 0
-785 0 0 660 0 660 785 0 785 0 0 -660z" />
        <path d="M4473 4630 c-40 -16 -43 -38 -43 -299 0 -245 0 -251 22 -271 29 -26
79 -26 104 1 10 11 21 40 24 65 l5 45 72 -66 c53 -49 78 -65 100 -65 42 0 73
33 73 78 0 34 -8 45 -100 131 l-99 94 94 91 c106 101 116 126 70 171 -41 42
-75 34 -150 -36 l-65 -61 0 39 c0 37 -27 83 -50 83 -4 0 -14 2 -22 4 -7 3 -23
1 -35 -4z" />
        <path d="M316 4609 l-26 -20 0 -255 c0 -241 1 -255 20 -274 28 -28 81 -26 108
3 19 20 22 35 22 110 l0 87 58 0 c48 0 62 4 80 23 23 25 28 66 12 97 -12 22
-61 40 -111 40 -34 0 -39 3 -39 24 0 22 4 24 66 28 58 4 70 8 90 32 31 35 30
71 -1 101 -23 24 -30 25 -138 25 -100 0 -117 -3 -141 -21z" />
        <path d="M847 4608 c-27 -25 -197 -458 -197 -501 0 -31 40 -67 74 -67 41 0 62
15 80 60 l16 40 80 0 81 0 14 -34 c21 -49 42 -66 81 -66 42 0 74 29 74 68 0
39 -163 471 -188 499 -27 31 -82 31 -115 1z m72 -300 c1 -5 -8 -8 -19 -8 -17
0 -18 3 -8 26 11 23 13 24 19 7 4 -10 8 -21 8 -25z" />
        <path d="M1315 4611 c-77 -34 -115 -106 -102 -187 10 -63 48 -98 147 -139 105
-44 124 -60 95 -82 -28 -20 -77 -10 -133 27 -51 34 -82 34 -116 0 -72 -70 57
-190 203 -190 145 0 244 108 211 230 -16 58 -65 102 -161 142 -89 37 -106 53
-64 64 18 4 41 -1 76 -20 28 -14 60 -26 70 -26 31 0 69 45 69 81 0 88 -184
151 -295 100z" />
        <path d="M1731 4604 c-12 -15 -21 -38 -21 -51 0 -36 42 -73 85 -73 l35 0 0
-194 c0 -180 1 -195 21 -220 16 -20 29 -26 59 -26 30 0 43 6 59 26 20 25 21
40 21 220 l0 194 39 0 c31 0 44 6 60 26 12 15 21 37 21 49 0 12 -9 34 -21 49
l-20 26 -159 0 -159 0 -20 -26z" />
        <path d="M2332 4607 c-48 -51 -12 -127 61 -127 l37 0 0 -198 c0 -195 0 -199
23 -220 30 -28 80 -29 107 -2 19 19 20 33 20 220 l0 200 39 0 c54 0 85 27 85
75 0 27 -6 43 -23 56 -20 17 -42 19 -175 19 -146 0 -153 -1 -174 -23z" />
        <path d="M2822 4608 c-22 -24 -22 -29 -22 -274 0 -249 0 -251 23 -272 30 -28
80 -29 107 -2 15 15 20 33 20 71 l0 51 48 -53 c77 -86 80 -89 117 -89 45 0 75
29 75 73 0 26 -12 46 -51 91 l-52 57 41 42 c22 23 46 55 51 70 30 78 -2 175
-71 223 -38 27 -49 29 -152 32 -106 3 -112 3 -134 -20z m202 -144 c9 -8 16
-19 16 -24 0 -15 -43 -40 -67 -40 -20 0 -23 5 -23 40 0 38 2 40 29 40 16 0 37
-7 45 -16z" />
        <path d="M3472 4608 c-26 -28 -192 -460 -192 -499 0 -38 32 -69 71 -69 44 0
65 14 83 60 l16 40 80 0 80 0 16 -40 c18 -45 39 -60 82 -60 34 0 72 36 72 69
0 36 -169 473 -192 498 -29 31 -87 31 -116 1z m71 -288 c4 -15 0 -20 -13 -20
-13 0 -17 5 -13 20 3 11 9 20 13 20 4 0 10 -9 13 -20z" />
        <path d="M3995 4602 c-109 -52 -169 -146 -169 -267 0 -57 5 -81 27 -128 34
-67 101 -130 164 -151 106 -36 236 -8 296 63 32 39 34 69 6 105 -28 35 -76 35
-118 0 -62 -52 -151 -36 -198 35 -76 113 39 253 168 206 73 -28 92 -28 122 -5
20 16 27 30 27 56 0 99 -191 149 -325 86z" />
    </g>
</svg>
