<?xml version="1.0" standalone="no"?>
<!DOCTYPE svg PUBLIC "-//W3C//DTD SVG 20010904//EN"
 "http://www.w3.org/TR/2001/REC-SVG-20010904/DTD/svg10.dtd">
<svg version="1.0" xmlns="http://www.w3.org/2000/svg"
 width="505.000000pt" height="494.000000pt" viewBox="0 0 505.000000 494.000000"
 preserveAspectRatio="xMidYMid meet">

<g transform="translate(0.000000,494.000000) scale(0.100000,-0.100000)"
fill="#000000" stroke="none">
<path d="M3456 4932 c-8 -16 -38 -114 -35 -116 2 -2 42 -20 89 -40 468 -204
884 -587 1122 -1034 l37 -70 105 38 c58 21 110 41 117 45 7 5 9 1 5 -11 -3
-11 -15 -59 -26 -109 -12 -49 -36 -153 -55 -230 -19 -77 -46 -191 -61 -253
-14 -62 -30 -112 -34 -110 -5 2 -111 93 -236 203 -125 110 -240 212 -257 226
l-30 25 79 29 c123 44 118 38 93 88 -38 73 -150 239 -220 322 -133 160 -305
312 -484 427 -106 68 -349 188 -359 177 -2 -2 -12 -29 -23 -59 l-20 -54 136
-67 c281 -138 497 -313 692 -559 49 -62 119 -167 119 -178 0 -5 -48 -27 -106
-49 l-106 -40 254 -224 c231 -205 478 -422 519 -456 16 -13 21 1 58 159 23 95
55 229 72 298 16 69 56 233 88 365 32 132 55 241 51 243 -4 1 -32 -7 -61 -19
-30 -11 -95 -36 -145 -54 -102 -36 -88 -41 -138 49 -31 56 -96 153 -140 211
-94 120 -126 158 -210 244 -165 169 -317 290 -499 398 -167 99 -382 201 -391
185z"/>
<path d="M682 4539 c13 -22 51 -84 85 -138 l63 -98 -138 -139 c-194 -196 -300
-339 -439 -594 -49 -90 -122 -266 -165 -400 -34 -108 -91 -350 -84 -358 5 -4
118 -23 121 -20 2 2 15 57 30 123 110 495 389 970 747 1272 43 36 78 69 78 73
0 7 -56 97 -101 162 -11 15 -19 30 -19 33 0 7 162 6 473 -2 142 -3 257 -9 257
-13 0 -4 -58 -110 -128 -236 -71 -126 -146 -260 -167 -298 -44 -80 -32 -83
-111 38 l-44 69 -138 -139 c-242 -243 -387 -475 -496 -793 -40 -115 -93 -329
-84 -336 2 -1 30 -6 64 -12 l60 -9 28 121 c57 245 168 495 300 680 93 129 237
295 257 295 4 0 35 -43 69 -96 l62 -96 32 58 c18 33 55 100 83 149 265 470
400 710 399 712 0 1 -217 6 -481 12 -264 6 -515 13 -558 15 l-77 4 22 -39z"/>
<path d="M3321 3892 c-58 -29 -76 -63 -76 -143 l0 -69 -149 -149 c-144 -144
-150 -149 -178 -139 -32 11 -78 7 -124 -12 -30 -13 -35 -11 -120 40 -169 101
-164 97 -164 133 0 45 -29 98 -70 125 -29 20 -45 23 -93 20 -46 -4 -63 -10
-87 -33 -36 -35 -54 -85 -46 -134 5 -36 5 -36 -106 -126 -177 -144 -179 -145
-197 -136 -9 5 -27 10 -41 11 -65 6 -83 0 -126 -44 -41 -40 -44 -47 -44 -97 0
-92 55 -149 145 -149 94 0 149 59 148 156 l-1 51 115 94 c64 52 128 104 142
115 24 20 27 21 69 6 42 -14 48 -13 96 7 l52 21 132 -76 132 -77 0 -48 c0
-112 136 -176 232 -108 45 32 61 74 55 140 l-5 57 147 146 147 146 64 -2 c80
-3 122 19 150 77 26 53 25 81 -2 135 -38 74 -123 101 -197 62z"/>
<path d="M3210 2680 l0 -660 180 0 180 0 0 660 0 660 -180 0 -180 0 0 -660z"/>
<path d="M2180 2575 l0 -555 180 0 180 0 0 555 0 555 -180 0 -180 0 0 -555z"/>
<path d="M2700 2425 l0 -405 175 0 175 0 0 405 0 405 -175 0 -175 0 0 -405z"/>
<path d="M1670 2365 l0 -345 175 0 175 0 0 345 0 345 -175 0 -175 0 0 -345z"/>
<path d="M276 1913 c-60 -225 -124 -466 -143 -536 -19 -71 -33 -131 -30 -134
3 -3 73 18 156 46 83 28 152 51 155 51 2 0 22 -33 45 -74 180 -328 463 -633
791 -852 595 -397 1355 -513 2055 -313 168 48 407 150 552 235 451 267 810
665 1013 1124 63 142 159 438 160 491 0 7 -111 31 -117 26 -1 -2 -20 -66 -42
-143 -134 -473 -400 -876 -781 -1186 -341 -277 -783 -459 -1232 -507 -388 -43
-815 24 -1186 185 -498 216 -925 624 -1159 1107 -13 26 -27 47 -32 47 -5 0
-55 -16 -111 -36 -55 -20 -103 -34 -106 -31 -3 3 27 126 67 274 39 147 81 305
92 351 12 45 24 81 28 80 4 -2 120 -108 258 -237 l251 -234 -88 -29 c-48 -17
-91 -34 -96 -38 -18 -17 130 -256 258 -415 115 -144 317 -321 493 -434 158
-101 378 -193 583 -245 949 -242 1926 214 2355 1099 58 120 133 329 149 417 6
35 5 38 -21 44 -15 3 -43 10 -60 14 -32 8 -33 7 -43 -33 -38 -145 -54 -197
-90 -284 -160 -384 -422 -692 -774 -910 -481 -298 -1091 -367 -1632 -183 -420
142 -792 440 -1024 818 -18 29 -31 54 -29 56 2 2 49 18 104 36 55 18 106 35
112 39 8 4 -26 42 -95 105 -127 117 -325 301 -437 406 -159 149 -227 210 -234
210 -4 0 -56 -183 -115 -407z"/>
<path d="M2526 1804 c-19 -18 -19 -20 -6 -45 18 -32 80 -19 80 17 0 17 -28 44
-45 44 -7 0 -21 -7 -29 -16z"/>
<path d="M1583 1803 c-10 -3 -13 -55 -13 -209 l0 -204 35 0 35 0 0 80 0 80 56
0 c105 0 154 44 154 138 0 61 -23 94 -78 110 -39 12 -165 15 -189 5z m152 -57
c37 -16 52 -48 41 -91 -8 -30 -53 -55 -101 -55 l-35 0 0 73 c0 41 3 77 7 80
11 11 52 8 88 -7z"/>
<path d="M3353 1763 c-7 -2 -13 -20 -13 -39 0 -30 -3 -34 -25 -34 -21 0 -25
-5 -25 -30 0 -25 4 -30 25 -30 l25 0 0 -104 c0 -102 1 -105 27 -126 20 -15 38
-20 67 -18 36 3 41 6 44 31 3 23 0 27 -20 27 -40 0 -48 18 -48 107 l0 83 35 0
c32 0 35 2 35 30 0 28 -3 30 -35 30 -34 0 -35 1 -35 40 0 35 -3 40 -22 39 -13
0 -29 -3 -35 -6z"/>
<path d="M1920 1540 l0 -150 34 0 34 0 4 96 c4 91 6 98 32 120 15 13 36 24 47
24 14 0 19 7 19 30 0 26 -4 30 -26 30 -16 0 -37 -12 -55 -31 l-29 -31 0 31 c0
28 -3 31 -30 31 l-30 0 0 -150z"/>
<path d="M2204 1676 c-38 -17 -71 -68 -80 -123 -8 -50 22 -123 60 -148 67 -44
187 -23 225 39 48 77 29 183 -41 226 -39 23 -117 26 -164 6z m125 -55 c11 -11
23 -36 27 -55 19 -103 -65 -176 -127 -110 -19 20 -24 36 -24 79 0 43 5 59 24
79 29 31 73 34 100 7z"/>
<path d="M2520 1536 c0 -85 -5 -167 -10 -181 -6 -15 -23 -32 -40 -38 -30 -11
-37 -30 -21 -56 15 -23 91 9 119 49 21 31 22 43 22 206 l0 174 -35 0 -35 0 0
-154z"/>
<path d="M2738 1675 c-35 -20 -67 -73 -74 -126 -7 -59 27 -127 76 -151 64 -33
196 -18 188 20 -3 13 -12 16 -43 14 -83 -6 -145 24 -145 68 0 19 7 20 105 20
l105 0 0 30 c0 44 -23 93 -55 118 -33 26 -115 30 -157 7z m131 -67 c9 -15 13
-30 9 -33 -3 -3 -38 -5 -77 -3 l-71 3 20 33 c19 30 24 33 62 30 34 -2 45 -8
57 -30z"/>
<path d="M3078 1669 c-94 -49 -103 -198 -17 -262 30 -22 94 -32 143 -23 30 6
36 11 36 32 0 22 -4 25 -32 24 -63 -4 -79 0 -103 25 -35 34 -35 103 -1 142 21
25 31 28 79 27 50 0 56 2 60 22 5 28 -9 34 -76 34 -32 -1 -67 -9 -89 -21z"/>
</g>
</svg>
