<?xml version="1.0" standalone="no"?>
<!DOCTYPE svg PUBLIC "-//W3C//DTD SVG 20010904//EN"
 "http://www.w3.org/TR/2001/REC-SVG-20010904/DTD/svg10.dtd">
<svg version="1.0" xmlns="http://www.w3.org/2000/svg"
 width="451.000000pt" height="553.000000pt" viewBox="0 0 451.000000 553.000000"
 preserveAspectRatio="xMidYMid meet">

<g transform="translate(0.000000,553.000000) scale(0.100000,-0.100000)"
fill="#000000" stroke="none">
<path d="M230 5519 c0 -5 -15 -16 -32 -24 -49 -22 -71 -44 -98 -100 l-25 -50
-3 -2520 c-2 -1742 1 -2535 8 -2570 15 -72 52 -122 106 -146 45 -19 88 -19
2048 -19 1821 0 2007 1 2050 16 158 54 167 344 13 426 l-42 23 -1902 3 -1903
2 0 2380 c0 2205 -1 2383 -17 2422 -24 61 -61 106 -105 129 -21 11 -38 24 -38
29 0 6 -13 10 -30 10 -16 0 -30 -5 -30 -11z"/>
<path d="M3110 3864 c-121 -5 -132 -8 -175 -46 -121 -105 -110 -310 20 -400
l40 -27 231 -1 c185 0 234 -3 243 -14 9 -11 -8 -38 -85 -132 -53 -66 -109
-135 -124 -154 -15 -19 -48 -59 -71 -89 -24 -30 -55 -68 -69 -86 -53 -69 -165
-210 -175 -221 -5 -6 -44 -54 -85 -107 -42 -54 -82 -97 -92 -97 -9 0 -32 19
-51 43 -18 23 -94 119 -167 212 -119 151 -279 351 -410 514 -122 150 -210 145
-343 -19 -38 -47 -105 -130 -149 -185 -44 -55 -87 -109 -97 -120 -9 -11 -50
-63 -92 -115 -41 -52 -145 -183 -230 -290 -209 -262 -205 -257 -219 -322 -26
-116 21 -230 113 -276 105 -52 133 -30 425 333 127 160 271 341 320 403 83
107 117 136 131 114 9 -15 226 -289 454 -574 109 -137 215 -259 235 -273 39
-27 91 -32 137 -15 52 20 94 70 660 785 268 340 269 340 284 331 9 -6 11 -89
9 -334 l-3 -327 25 -48 c47 -92 120 -132 199 -109 47 15 99 65 123 121 19 41
20 70 19 698 -2 706 0 685 -56 751 -58 70 -57 69 -490 74 -214 3 -433 4 -485
2z"/>
</g>
</svg>
