<?xml version="1.0" standalone="no"?>
<!DOCTYPE svg PUBLIC "-//W3C//DTD SVG 20010904//EN"
 "http://www.w3.org/TR/2001/REC-SVG-20010904/DTD/svg10.dtd">
<svg version="1.0" xmlns="http://www.w3.org/2000/svg"
 width="500.000000pt" height="500.000000pt" viewBox="0 0 500.000000 500.000000"
 preserveAspectRatio="xMidYMid meet">

<g transform="translate(0.000000,500.000000) scale(0.100000,-0.100000)"
fill="#000000" stroke="none">
<path d="M2899 4606 c-461 -97 -773 -499 -746 -960 29 -488 430 -866 917 -866
353 0 672 201 830 522 99 202 117 462 48 678 -93 290 -337 527 -628 610 -97
28 -323 36 -421 16z"/>
<path d="M2171 2939 c-83 -11 -182 -43 -251 -81 -68 -38 -166 -116 -202 -162
l-27 -34 132 -4 c107 -3 141 -8 179 -25 62 -28 128 -91 158 -150 l25 -48 3
-807 2 -808 1210 0 1210 0 0 725 c0 788 -1 799 -56 936 -110 270 -347 440
-647 465 l-83 6 -49 -43 c-122 -105 -302 -201 -444 -236 -36 -8 -69 -19 -73
-22 -5 -4 21 -24 57 -45 l65 -38 -139 -156 -139 -157 24 -105 c155 -686 166
-743 158 -770 -12 -37 -208 -440 -214 -439 -8 0 -220 442 -220 457 0 8 41 197
90 420 50 224 92 414 93 423 1 9 -58 84 -130 167 -73 83 -133 155 -133 159 0
5 30 25 67 45 l67 36 -45 12 c-200 51 -362 132 -487 243 -58 52 -68 53 -201
36z"/>
<path d="M605 2500 c-99 -4 -125 -8 -147 -25 -61 -46 -58 5 -58 -1036 0 -939
0 -950 21 -990 14 -29 32 -46 62 -60 40 -18 73 -19 617 -19 l575 0 183 183
182 183 -2 836 c-3 833 -3 837 -24 865 -47 63 -20 61 -684 65 -333 1 -659 1
-725 -2z m1283 -925 l2 -770 -142 -142 -143 -143 -525 2 -525 3 -3 913 -2 912
667 -2 668 -3 3 -770z"/>
<path d="M710 2030 l0 -80 510 0 510 0 0 80 0 80 -510 0 -510 0 0 -80z"/>
<path d="M717 1803 c-4 -3 -7 -42 -7 -85 l0 -78 510 0 511 0 -3 83 -3 82 -501
3 c-275 1 -504 -1 -507 -5z"/>
<path d="M720 1405 l0 -85 285 0 285 0 0 85 0 85 -285 0 -285 0 0 -85z"/>
<path d="M1382 1225 l-201 -245 30 -16 c17 -8 51 -35 75 -59 l44 -44 183 222
c211 255 222 270 210 290 -13 24 -106 97 -123 97 -9 0 -107 -110 -218 -245z"/>
<path d="M1145 912 c-12 -28 -34 -125 -35 -148 0 -21 3 -21 85 15 46 20 85 41
85 47 0 15 -60 68 -99 89 -26 13 -30 13 -36 -3z"/>
<path d="M720 785 l0 -35 160 0 160 0 0 35 0 35 -160 0 -160 0 0 -35z"/>
<path d="M1580 688 l0 -113 110 110 c61 60 110 111 110 112 0 2 -49 3 -110 3
l-110 0 0 -112z"/>
</g>
</svg>
