<svg width="16" height="16" viewBox="0 0 16 16" fill="none" xmlns="http://www.w3.org/2000/svg">
<path fill-rule="evenodd" clip-rule="evenodd" d="M8.41075 1.33325H7.58739C7.12369 1.33325 6.67909 1.51429 6.35199 1.8363C6.06207 2.12172 5.88472 2.49803 5.85052 2.89846L5.84485 3.02779C5.83852 3.44893 5.4983 3.77748 5.08069 3.77744C4.98599 3.77645 4.88763 3.75484 4.79708 3.71412L4.70825 3.66773C3.88772 3.2067 2.82088 3.48909 2.33947 4.30769L1.90662 5.00456C1.44635 5.78691 1.67336 6.76976 2.41634 7.27597L2.51968 7.34092C2.77435 7.48551 2.91993 7.73256 2.91993 7.99992C2.91993 8.2458 2.79663 8.4757 2.59099 8.61515L2.52079 8.65822C1.75103 9.09407 1.44774 10.056 1.83466 10.8562L1.89121 10.9627L2.3161 11.6815C2.53695 12.0721 2.9154 12.3664 3.36299 12.491C3.75971 12.6015 4.18309 12.5709 4.55843 12.4055L4.67712 12.3475C4.87688 12.2343 5.08325 12.2072 5.27694 12.258C5.47063 12.3088 5.63559 12.4332 5.73515 12.6038C5.79005 12.6945 5.82227 12.7881 5.83377 12.885L5.83943 12.9835C5.83846 13.8994 6.62148 14.6666 7.58739 14.6666H8.41095C9.32301 14.6666 10.08 13.9801 10.154 13.0942L10.1594 12.9798C10.1589 12.7585 10.2388 12.5682 10.3818 12.4281C10.5248 12.288 10.7191 12.2097 10.9213 12.2106C11.0143 12.2132 11.1164 12.236 11.2111 12.2774L11.3018 12.3232C12.0674 12.7562 13.0706 12.5338 13.5872 11.8058L13.6535 11.7046L14.0933 10.9869C14.33 10.5888 14.3941 10.1211 14.2746 9.68191C14.1687 9.29267 13.9258 8.95306 13.5896 8.72265L13.4783 8.65278C13.2848 8.54321 13.1573 8.38044 13.1054 8.1895C13.0534 7.99856 13.0813 7.79519 13.1828 7.62444C13.239 7.5283 13.3138 7.44829 13.4034 7.38704L13.575 7.28144C14.2696 6.81943 14.5297 5.91005 14.1641 5.14553L14.1262 5.07108C14.118 5.05167 14.1085 5.03273 14.0977 5.01441L13.6889 4.31944C13.2341 3.54604 12.2506 3.2459 11.4307 3.62358L11.3214 3.67884C11.1255 3.79117 10.9186 3.81956 10.7238 3.77001C10.529 3.72046 10.3623 3.59703 10.2605 3.42695C10.2083 3.34069 10.1761 3.24711 10.1646 3.15015L10.1589 3.05169C10.1733 2.63304 9.99501 2.18446 9.66553 1.85239C9.33606 1.52033 8.88343 1.33306 8.41075 1.33325ZM7.5874 2.29841H8.41096C8.6176 2.29833 8.81528 2.38011 8.95917 2.52514C9.10306 2.67016 9.18091 2.86607 9.17498 3.06824L9.18373 3.23628C9.21352 3.49314 9.29047 3.71661 9.41208 3.91736C9.6449 4.30635 10.0282 4.59022 10.4762 4.70419C10.9242 4.81816 11.4001 4.75285 11.7989 4.52268L11.8677 4.48835L11.9417 4.45931C12.2673 4.35227 12.651 4.48775 12.8354 4.80131L13.2252 5.46475L13.2337 5.48344L13.2808 5.57247C13.4386 5.90327 13.3067 6.32172 12.9654 6.51734L12.8582 6.58346C12.6309 6.73813 12.4566 6.92469 12.3298 7.14166C12.0981 7.53129 12.034 7.99902 12.1535 8.43818C12.2622 8.83741 12.5144 9.18309 12.8615 9.41293L13.043 9.52535C13.1711 9.61369 13.2767 9.76136 13.3228 9.93059C13.3747 10.1215 13.3469 10.3249 13.2453 10.4957L12.8157 11.197L12.7674 11.2711C12.5686 11.5505 12.1765 11.6542 11.8459 11.512L11.6352 11.4066C11.4003 11.303 11.1704 11.2518 10.9369 11.2456C10.4609 11.2433 10.0142 11.4233 9.68526 11.7456C9.35634 12.0678 9.17254 12.5056 9.17479 12.9613L9.17101 13.034C9.13994 13.4015 8.80917 13.7014 8.41096 13.7014H7.5874C7.19367 13.7014 6.86953 13.4096 6.82806 13.0346L6.81462 12.7989C6.78483 12.542 6.70788 12.3186 6.58627 12.1178C6.36021 11.7305 5.97909 11.4429 5.5316 11.3256C5.08411 11.2083 4.60733 11.271 4.20722 11.4997L4.13474 11.5345C3.99048 11.5975 3.80556 11.6109 3.6323 11.5626C3.43683 11.5082 3.27154 11.3797 3.17304 11.2055L2.75354 10.4965L2.71601 10.4255C2.5571 10.0959 2.68905 9.67744 3.03095 9.48365L3.13482 9.41967C3.62277 9.08927 3.90505 8.56295 3.90505 7.99991C3.90505 7.42855 3.61467 6.89769 3.13599 6.58058L2.96218 6.47275C2.65506 6.26302 2.55587 5.83354 2.75421 5.49628L3.18707 4.79941C3.40329 4.43202 3.86922 4.30868 4.23462 4.51382L4.36287 4.58009C4.60239 4.68853 4.83727 4.74014 5.07553 4.74257C5.99982 4.74269 6.75562 4.04716 6.82459 3.16092L6.83354 2.95766C6.84707 2.80485 6.92419 2.64123 7.05025 2.51713C7.19247 2.37712 7.38577 2.29841 7.5874 2.29841ZM8.00218 5.82113C6.77399 5.82113 5.77834 6.79661 5.77834 7.99992C5.77834 9.20323 6.77399 10.1787 8.00218 10.1787C9.23037 10.1787 10.226 9.20323 10.226 7.99992C10.226 6.79661 9.23037 5.82113 8.00218 5.82113ZM8.00218 6.78629C8.68631 6.78629 9.2409 7.32965 9.2409 7.99992C9.2409 8.67019 8.68631 9.21354 8.00218 9.21354C7.31805 9.21354 6.76346 8.67019 6.76346 7.99992C6.76346 7.32965 7.31805 6.78629 8.00218 6.78629Z" fill="#A6A6A6"/>
</svg>
