<?xml version="1.0" standalone="no"?>
<!DOCTYPE svg PUBLIC "-//W3C//DTD SVG 20010904//EN"
 "http://www.w3.org/TR/2001/REC-SVG-20010904/DTD/svg10.dtd">
<svg version="1.0" xmlns="http://www.w3.org/2000/svg"
 width="1200.000000pt" height="1473.000000pt" viewBox="0 0 1200.000000 1473.000000"
 preserveAspectRatio="xMidYMid meet">

<g transform="translate(0.000000,1473.000000) scale(0.100000,-0.100000)"
fill="#000000" stroke="none">
<path d="M2432 14349 c-402 -31 -979 -240 -1249 -454 -182 -143 -253 -284
-253 -499 0 -94 1 -99 60 -246 115 -288 259 -593 381 -805 28 -49 53 -91 54
-93 2 -2 22 11 46 27 91 64 234 98 449 107 126 5 159 3 250 -16 488 -101 765
-323 868 -696 l27 -99 3 -1482 3 -1483 -1375 -2 -1374 -3 666 -697 667 -697
708 0 707 -1 0 -2320 0 -2320 31 -97 c103 -322 326 -651 678 -1001 586 -580
1249 -955 1896 -1069 126 -22 617 -25 825 -5 992 98 1835 423 2626 1014 590
442 1232 1136 1679 1818 549 835 842 1706 873 2588 36 995 -207 1786 -761
2478 -326 408 -682 674 -1087 812 -371 127 -799 153 -1245 77 -541 -92 -873
-313 -1132 -753 -199 -339 -276 -703 -244 -1162 41 -594 193 -992 491 -1291
241 -242 544 -382 960 -446 129 -19 454 -24 653 -9 l118 8 -6 -68 c-44 -491
-193 -929 -473 -1391 -201 -331 -481 -675 -813 -998 -669 -649 -1266 -989
-1880 -1071 -146 -19 -441 -14 -606 10 -368 55 -629 188 -820 420 -186 224
-273 437 -294 716 -6 84 -9 869 -7 2095 l3 1960 1094 5 1094 5 -683 697 -682
698 -412 2 -411 3 -6 1660 c-6 1794 -3 1697 -59 2030 -95 558 -264 971 -560
1370 -319 430 -702 642 -1222 675 -79 5 -145 9 -148 8 -3 0 -51 -4 -108 -9z"/>
</g>
</svg>
