<svg version="1.0" xmlns="http://www.w3.org/2000/svg" width="48pt" height="48pt" viewBox="0 0 48 48" preserveAspectRatio="xMidYMid meet">
    <g transform="translate(0,48) scale(0.1,-0.1)" fill="#000000" stroke="none">
        <path d="M180 400 c-13 -13 -20 -33 -20 -60 0 -53 27 -80 80 -80 53 0 80 27
80 80 0 27 -7 47 -20 60 -13 13 -33 20 -60 20 -27 0 -47 -7 -60 -20z" />
        <path d="M130 184 c-54 -23 -70 -43 -70 -86 l0 -38 180 0 180 0 0 38 c0 44
-16 63 -73 87 -47 19 -170 19 -217 -1z" />
    </g>
</svg>
