<?xml version="1.0" standalone="no"?>
<!DOCTYPE svg PUBLIC "-//W3C//DTD SVG 20010904//EN"
 "http://www.w3.org/TR/2001/REC-SVG-20010904/DTD/svg10.dtd">
<svg version="1.0" xmlns="http://www.w3.org/2000/svg"
 width="360.000000pt" height="360.000000pt" viewBox="0 0 360.000000 360.000000"
 preserveAspectRatio="xMidYMid meet">

<g transform="translate(0.000000,360.000000) scale(0.100000,-0.100000)"
fill="#000000" stroke="none">
<path d="M175 3311 c-80 -20 -145 -82 -164 -157 -8 -29 -11 -372 -11 -1103 l0
-1061 845 0 845 0 0 -245 0 -245 -331 0 -331 0 -28 -29 c-33 -32 -45 -69 -36
-106 7 -29 47 -67 79 -77 29 -8 1485 -8 1514 0 32 10 72 48 79 77 9 37 -3 74
-36 106 l-28 29 -331 0 -331 0 0 245 0 245 845 0 845 0 -2 1083 c-3 1034 -4
1084 -22 1117 -26 49 -55 79 -101 103 l-40 22 -1615 2 c-888 0 -1628 -2 -1645
-6z m3200 -1161 l0 -945 -1515 -3 c-833 -2 -1543 0 -1577 3 l-63 7 0 937 c0
516 3 941 7 944 3 4 713 6 1577 5 l1571 -3 0 -945z"/>
</g>
</svg>
