<?xml version="1.0" standalone="no"?><!DOCTYPE svg PUBLIC "-//W3C//DTD SVG 20010904//EN"
    "http://www.w3.org/2000/svg">
<svg version="1.0" xmlns="http://www.w3.org/2000/svg"
 width="200.000000pt" height="200.000000pt" viewBox="0 0 200.000000 200.000000"
 preserveAspectRatio="xMidYMid meet">

<g transform="translate(0.000000,200.000000) scale(0.100000,-0.100000)"
fill="#000000" stroke="none">
<path d="M889 1940 c-333 -42 -608 -241 -751 -546 -65 -140 -81 -216 -82 -394
-1 -132 3 -167 22 -240 46 -169 132 -318 251 -435 55 -53 66 -60 102 -60 34 0
46 6 70 33 44 49 40 91 -14 150 -165 178 -230 334 -230 547 0 333 204 613 523
716 102 32 282 37 390 10 96 -24 226 -84 283 -132 l39 -32 -61 -61 c-49 -49
-61 -68 -61 -93 0 -22 6 -36 20 -43 11 -6 129 -37 262 -69 260 -62 282 -63
294 -14 8 32 -106 490 -129 520 -28 36 -53 28 -121 -37 -56 -53 -65 -59 -76
-45 -26 31 -178 125 -251 156 -146 60 -334 87 -480 69z"/>
<path d="M964 1521 c-12 -5 -31 -22 -43 -37 -20 -26 -21 -37 -21 -273 0 -200
3 -250 15 -267 8 -12 86 -67 173 -123 128 -81 167 -101 197 -101 71 0 120 85
85 150 -6 10 -69 56 -140 101 l-130 82 0 203 0 204 -27 30 c-30 32 -75 45
-109 31z"/>
<path d="M1484 420 c-11 -4 -37 -24 -57 -43 -101 -95 20 -230 136 -152 74 51
86 129 26 179 -31 26 -67 32 -105 16z"/>
<path d="M669 262 c-56 -50 -37 -137 36 -168 40 -16 98 -18 126 -4 24 13 49
61 49 94 0 53 -77 106 -154 106 -14 0 -40 -12 -57 -28z"/>
<path d="M1120 259 c-93 -17 -123 -108 -59 -174 25 -26 36 -30 75 -28 89 3
134 39 134 107 0 25 -8 44 -27 65 -33 34 -62 41 -123 30z"/>
</g>
</svg>
